<svg width="41" height="41" viewBox="0 0 41 41" fill="none" xmlns="http://www.w3.org/2000/svg">
<g opacity="0.5">
<g clip-path="url(#clip0_19_240)">
<path d="M13.9237 15.845L11.2212 13.1433L12.4004 11.9642L15.102 14.6667H27.8037C27.9336 14.6667 28.0617 14.697 28.1777 14.7553C28.2938 14.8136 28.3947 14.8982 28.4722 15.0024C28.5498 15.1066 28.6019 15.2275 28.6244 15.3554C28.647 15.4833 28.6393 15.6147 28.602 15.7392L26.602 22.4058C26.5506 22.5776 26.4451 22.7281 26.3013 22.8352C26.1575 22.9422 25.983 23 25.8037 23H15.5904V24.6667H24.757V26.3333H14.757C14.536 26.3333 14.324 26.2455 14.1678 26.0893C14.0115 25.933 13.9237 25.721 13.9237 25.5V15.845ZM15.5904 16.3333V21.3333H25.1837L26.6837 16.3333H15.5904ZM15.1737 29.6667C14.8422 29.6667 14.5242 29.535 14.2898 29.3006C14.0554 29.0661 13.9237 28.7482 13.9237 28.4167C13.9237 28.0852 14.0554 27.7672 14.2898 27.5328C14.5242 27.2984 14.8422 27.1667 15.1737 27.1667C15.5052 27.1667 15.8232 27.2984 16.0576 27.5328C16.292 27.7672 16.4237 28.0852 16.4237 28.4167C16.4237 28.7482 16.292 29.0661 16.0576 29.3006C15.8232 29.535 15.5052 29.6667 15.1737 29.6667ZM25.1737 29.6667C24.8422 29.6667 24.5242 29.535 24.2898 29.3006C24.0554 29.0661 23.9237 28.7482 23.9237 28.4167C23.9237 28.0852 24.0554 27.7672 24.2898 27.5328C24.5242 27.2984 24.8422 27.1667 25.1737 27.1667C25.5052 27.1667 25.8232 27.2984 26.0576 27.5328C26.292 27.7672 26.4237 28.0852 26.4237 28.4167C26.4237 28.7482 26.292 29.0661 26.0576 29.3006C25.8232 29.535 25.5052 29.6667 25.1737 29.6667Z" fill="#3D3014"/>
</g>
</g>
<defs>
<clipPath id="clip0_19_240">
<rect width="20" height="20" fill="white" transform="translate(10.5903 10.5)"/>
</clipPath>
</defs>
</svg>
