<svg width="41" height="41" viewBox="0 0 41 41" fill="none" xmlns="http://www.w3.org/2000/svg">
<g opacity="0.5">
<g clip-path="url(#clip0_19_239)">
<path d="M28 27.1667C28 27.3877 27.9122 27.5996 27.7559 27.7559C27.5996 27.9122 27.3877 28 27.1667 28H13.8333C13.6123 28 13.4004 27.9122 13.2441 27.7559C13.0878 27.5996 13 27.3877 13 27.1667V13.8333C13 13.6123 13.0878 13.4004 13.2441 13.2441C13.4004 13.0878 13.6123 13 13.8333 13H27.1667C27.3877 13 27.5996 13.0878 27.7559 13.2441C27.9122 13.4004 28 13.6123 28 13.8333V27.1667ZM19.6667 14.6667H14.6667V26.3333H19.6667V14.6667ZM26.3333 21.3333H21.3333V26.3333H26.3333V21.3333ZM26.3333 14.6667H21.3333V19.6667H26.3333V14.6667Z" fill="#3D3014"/>
</g>
</g>
<defs>
<clipPath id="clip0_19_239">
<rect width="20" height="20" fill="white" transform="translate(10.5 10.5)"/>
</clipPath>
</defs>
</svg>
