<svg width="41" height="41" viewBox="0 0 41 41" fill="none" xmlns="http://www.w3.org/2000/svg">
<g opacity="0.5">
<g clip-path="url(#clip0_20_519)">
<path d="M28.1807 27.1666C28.1807 27.3877 28.0929 27.5996 27.9366 27.7559C27.7803 27.9122 27.5683 28 27.3473 28H14.014C13.793 28 13.581 27.9122 13.4247 27.7559C13.2685 27.5996 13.1807 27.3877 13.1807 27.1666V18.4083C13.1806 18.2813 13.2095 18.156 13.2653 18.0419C13.321 17.9278 13.4021 17.828 13.5023 17.75L20.169 12.565C20.3153 12.4512 20.4953 12.3894 20.6807 12.3894C20.866 12.3894 21.046 12.4512 21.1923 12.565L27.859 17.75C27.9592 17.828 28.0403 17.9278 28.0961 18.0419C28.1518 18.156 28.1808 18.2813 28.1807 18.4083V27.1666V27.1666Z" stroke="#3D3014" stroke-width="1.6"/>
</g>
</g>
<defs>
<clipPath id="clip0_20_519">
<rect width="20" height="20" fill="white" transform="translate(10.6807 10.5)"/>
</clipPath>
</defs>
</svg>
