<svg width="41" height="41" viewBox="0 0 41 41" fill="none" xmlns="http://www.w3.org/2000/svg">
<g opacity="0.5">
<g clip-path="url(#clip0_19_236)">
<path d="M26.986 28.8333H25.3193V27.1666C25.3193 26.5036 25.0559 25.8677 24.5871 25.3989C24.1182 24.93 23.4824 24.6666 22.8193 24.6666H17.8193C17.1563 24.6666 16.5204 24.93 16.0515 25.3989C15.5827 25.8677 15.3193 26.5036 15.3193 27.1666V28.8333H13.6526V27.1666C13.6526 26.0616 14.0916 25.0018 14.873 24.2204C15.6544 23.439 16.7142 23 17.8193 23H22.8193C23.9244 23 24.9842 23.439 25.7656 24.2204C26.547 25.0018 26.986 26.0616 26.986 27.1666V28.8333ZM20.3193 21.3333C19.6627 21.3333 19.0125 21.204 18.4059 20.9527C17.7993 20.7014 17.2481 20.3331 16.7838 19.8688C16.3195 19.4046 15.9512 18.8534 15.6999 18.2467C15.4486 17.6401 15.3193 16.9899 15.3193 16.3333C15.3193 15.6767 15.4486 15.0265 15.6999 14.4199C15.9512 13.8133 16.3195 13.2621 16.7838 12.7978C17.2481 12.3335 17.7993 11.9652 18.4059 11.7139C19.0125 11.4626 19.6627 11.3333 20.3193 11.3333C21.6454 11.3333 22.9172 11.8601 23.8548 12.7978C24.7925 13.7355 25.3193 15.0072 25.3193 16.3333C25.3193 17.6594 24.7925 18.9312 23.8548 19.8688C22.9172 20.8065 21.6454 21.3333 20.3193 21.3333ZM20.3193 19.6666C21.2034 19.6666 22.0512 19.3155 22.6763 18.6903C23.3015 18.0652 23.6526 17.2174 23.6526 16.3333C23.6526 15.4493 23.3015 14.6014 22.6763 13.9763C22.0512 13.3512 21.2034 13 20.3193 13C19.4353 13 18.5874 13.3512 17.9623 13.9763C17.3372 14.6014 16.986 15.4493 16.986 16.3333C16.986 17.2174 17.3372 18.0652 17.9623 18.6903C18.5874 19.3155 19.4353 19.6666 20.3193 19.6666Z" fill="#3D3014"/>
</g>
</g>
<defs>
<clipPath id="clip0_19_236">
<rect width="20" height="20" fill="white" transform="translate(10.3193 10.5)"/>
</clipPath>
</defs>
</svg>
